<svg width="28" height="28" viewBox="0 0 28 28" fill="none" xmlns="http://www.w3.org/2000/svg">
<rect width="28" height="28" rx="5" fill="#676767"/>
<rect x="3.5" y="4.375" width="21" height="19.25" fill="white"/>
<path d="M14.0123 11.7226C15.2822 11.7184 16.2936 10.6988 16.289 9.42601C16.284 8.15322 15.2709 7.1394 14.0005 7.13843C12.7195 7.13722 11.6964 8.1692 11.7064 9.4536C11.7158 10.7216 12.7386 11.7279 14.0123 11.7226Z" fill="#676767"/>
<path d="M24.1649 2.625H3.83511C3.16689 2.625 2.625 3.16664 2.625 3.83511V24.1649C2.625 24.8334 3.16689 25.375 3.83511 25.375H24.1649C24.8334 25.375 25.375 24.8334 25.375 24.1649V3.83511C25.375 3.16664 24.8334 2.625 24.1649 2.625ZM14.0194 4.74656C16.6087 4.75309 18.6877 6.87175 18.6749 9.49066C18.6611 12.0488 16.5482 14.1225 13.963 14.1138C11.4034 14.105 9.30454 11.9832 9.31907 9.41951C9.33431 6.8277 11.4346 4.73881 14.0194 4.74656ZM19.2647 15.9536C18.6921 16.5419 18.0028 16.9669 17.237 17.2644C16.5131 17.5442 15.72 17.686 14.9349 17.7799C15.0535 17.9091 15.1094 17.9718 15.183 18.0466C16.2489 19.1175 17.3191 20.1841 18.3813 21.2582C18.7429 21.6239 18.8194 22.0777 18.6197 22.5034C18.4016 22.9693 17.914 23.275 17.4353 23.2421C17.1322 23.2208 16.896 23.07 16.6864 22.8592C15.882 22.0496 15.0622 21.2553 14.2747 20.4315C14.0455 20.1914 13.9351 20.2362 13.7323 20.445C12.9232 21.2781 12.1016 22.0983 11.2746 22.9136C10.9031 23.2801 10.4614 23.3456 10.0299 23.1368C9.57198 22.9149 9.28107 22.4475 9.30358 21.9773C9.31907 21.6597 9.47541 21.4172 9.69347 21.1994C10.7477 20.1464 11.7995 19.0907 12.8519 18.0357C12.9218 17.966 12.9867 17.8912 13.0881 17.7828C11.6531 17.633 10.3593 17.2801 9.25203 16.4137C9.1148 16.306 8.97273 16.2019 8.84688 16.0814C8.36236 15.6157 8.31371 15.083 8.69731 14.5334C9.02501 14.0634 9.57633 13.9371 10.1487 14.2069C10.2598 14.259 10.3653 14.3246 10.4665 14.3945C12.5304 15.8127 15.3662 15.8522 17.4382 14.4589C17.6431 14.3023 17.8627 14.1726 18.1173 14.1082C18.6122 13.9811 19.0725 14.1624 19.3383 14.5951C19.6425 15.0881 19.6384 15.5702 19.2647 15.9536Z" fill="#676767"/>
</svg>
